<svg width="87" height="87" xmlns="http://www.w3.org/2000/svg" xmlns:xlink="http://www.w3.org/1999/xlink" overflow="hidden"><defs><clipPath id="clip0"><rect x="106" y="49" width="87" height="87"/></clipPath></defs><g clip-path="url(#clip0)" transform="translate(-106 -49)"><path d="M185.569 56.6125C184.3 55.3438 176.144 56.7938 169.347 58.6063 171.794 60.0563 174.331 62.05 176.778 64.4969 179.316 67.0344 181.309 69.5719 182.759 72.1094 184.572 65.1312 186.928 57.8812 185.569 56.6125Z" fill="#6A43B1"/><path d="M135.091 82.4406 132.009 81.2625C130.741 80.8094 129.381 81.0813 128.384 81.9875L113.975 96.3969C111.619 98.7531 113.794 102.831 117.056 102.106L129.109 99.3875C130.106 94.8562 131.738 88.7844 135.091 82.4406Z" fill="#6A43B1"/><path d="M159.106 106.094C153.034 109.266 147.234 110.988 142.522 111.894L139.712 124.762C138.988 128.025 142.975 130.291 145.422 127.844L159.831 113.434C160.738 112.528 161.1 111.078 160.556 109.809L159.106 106.094Z" fill="#6A43B1"/><path d="M164.453 60.2375C159.106 62.4125 153.034 66.1281 147.144 72.0188 136.359 82.8031 133.188 95.8531 132.281 103.284L137.9 108.903C145.331 107.997 158.472 104.916 169.256 94.1312 175.147 88.2406 178.863 82.2594 181.038 76.9125 179.859 73.9219 177.503 70.3875 174.15 66.9437 170.887 63.7719 167.444 61.4156 164.453 60.2375ZM169.075 79.8125C166.991 81.8969 163.547 81.8969 161.372 79.8125 159.288 77.7281 159.288 74.2844 161.372 72.1094 163.456 70.025 166.9 70.025 169.075 72.1094 171.159 74.2844 171.159 77.7281 169.075 79.8125Z" fill="#6A43B1"/><path d="M132.191 108.994C130.741 107.544 130.922 105.097 127.931 108.087 124.941 111.078 120.5 117.875 121.859 119.325 123.309 120.775 130.106 116.244 133.097 113.253 136.087 110.172 133.641 110.353 132.191 108.994Z" fill="#6A43B1"/></g></svg>