<svg width="367" height="368" xmlns="http://www.w3.org/2000/svg" xmlns:xlink="http://www.w3.org/1999/xlink" overflow="hidden"><defs><clipPath id="clip0"><rect x="808" y="176" width="367" height="368"/></clipPath><clipPath id="clip1"><path d="M808.816 358.859 992.977 176.979 1174.86 361.141 990.695 543.021Z" fill-rule="evenodd" clip-rule="evenodd"/></clipPath><clipPath id="clip2"><path d="M808.816 358.859 992.977 176.979 1174.86 361.141 990.695 543.021Z" fill-rule="evenodd" clip-rule="evenodd"/></clipPath><clipPath id="clip3"><path d="M808.816 358.859 992.977 176.979 1174.86 361.141 990.695 543.021Z" fill-rule="evenodd" clip-rule="evenodd"/></clipPath></defs><g clip-path="url(#clip0)" transform="translate(-808 -176)"><g clip-path="url(#clip1)"><g clip-path="url(#clip2)"><g clip-path="url(#clip3)"><path d="M993.161 208.629C987.823 208.596 973.589 228.716 962.991 246.762 971.202 244.716 980.741 243.632 991.036 243.696 1001.71 243.763 1011.24 244.966 1019.61 247.306 1008.86 228.746 998.691 208.473 993.161 208.629Z" fill="#6A43B1"/><path d="M940.305 368.83 931.319 372.778C927.686 374.471 925.377 377.888 925.162 381.891L924.784 442.516C924.722 452.43 937.851 456.516 943.242 448.16L963.072 417.207C955.709 405.532 946.469 389.268 940.305 368.83Z" fill="#6A43B1"/><path d="M1040.59 368.693C1034.37 388.101 1025.69 403.871 1017.61 415.641L1038.57 448.755C1043.85 457.176 1057.03 453.636 1057.09 443.341L1057.47 382.716C1057.49 378.903 1055.23 375.076 1051.43 373.527L1040.59 368.693Z" fill="#6A43B1"/><path d="M956.042 260.446C949.271 276.228 944.186 296.787 944.031 321.571 943.748 366.945 964.316 401.2 977.933 418.825L1001.57 418.973C1015.41 401.519 1036.78 367.525 1037.07 322.151 1037.22 297.367 1032.58 276.938 1026.01 261.073 1017.26 257.205 1004.89 254.65 990.588 254.37 977.051 254.476 964.836 256.688 956.042 260.446ZM1006.75 292.22C1006.69 300.99 999.404 308.189 990.443 308.324 981.673 308.269 974.473 300.98 974.339 292.018 974.393 283.248 981.683 276.049 990.645 275.914 999.604 276.161 1006.8 283.45 1006.75 292.22Z" fill="#6A43B1"/><path d="M989.677 431.1C983.576 431.062 978.845 425.504 978.766 438.087 978.688 450.669 983.497 474.34 989.406 474.568 995.507 474.606 1000.42 450.805 1000.5 438.222 1000.39 425.448 995.588 430.947 989.677 431.1Z" fill="#6A43B1"/></g></g></g></g></svg>